<?xml version="1.0" encoding="UTF-8"?>
<svg id="Layer_2" data-name="Layer 2" xmlns="http://www.w3.org/2000/svg" xmlns:xlink="http://www.w3.org/1999/xlink" viewBox="0 0 338.19 171.3">
  <defs>
    <style>
      .cls-1 {
        fill: none;
      }
      .cls-1, .cls-2 {
        stroke-width: 0px;
      }
      .cls-2 {
        fill: #000000; /* black */
      }
      .cls-3 {
        clip-path: url(#clippath);
      }
      .cls-4 {
        opacity: .3;
      }
    </style>
    <clipPath id="clippath">
      <rect class="cls-1" width="338.19" height="171.3"/>
    </clipPath>
  </defs>
  <g id="Layer_1-2" data-name="Layer 1">
    <g class="cls-4">
      <g class="cls-3">
        <g>
          <g>
            <path class="cls-2" d="m35.91,183.3h-2.42v-97.66h2.42v97.66Zm-1.98-.44h1.53v-96.77h-1.53v96.77Z"/>
            <path class="cls-2" d="m35.06,179.06H3.52l-.05-.15c-2.31-6.96-3.47-14.25-3.47-21.69,0-14.75,4.71-29.1,13.25-40.4l.07-.09h21.74v62.33Zm-31.22-.44h30.77v-61.44H13.54C5.09,128.39.44,142.61.44,157.22c0,7.33,1.14,14.53,3.4,21.4Z"/>
            <path class="cls-2" d="m35.91,179.06H3.61l-.05-.15C1.2,171.95,0,164.66,0,157.22,0,131.88,13.97,109.09,35.59,99.15l.32-.15v80.06Zm-31.98-.44h31.54v-78.92C14.18,109.64.45,132.18.45,157.22c0,7.33,1.17,14.53,3.48,21.4Zm29.72-1.82H5.25l-.05-.16c-1.95-6.25-2.94-12.79-2.94-19.42,0-23.19,11.9-44.04,31.06-54.41l.33-.18v74.17Zm-28.07-.44h27.63v-72.97c-18.82,10.35-30.5,30.94-30.5,53.84,0,6.53.96,12.97,2.87,19.13Z"/>
            <path class="cls-2" d="m35.91,179.06H15.16l-.04-.18c-1.5-6.95-2.27-14.24-2.27-21.66,0-25.32,8.91-48.11,22.7-58.05l.35-.25v80.14Zm-20.39-.44h19.94v-78.83c-13.48,9.99-22.16,32.46-22.16,57.43,0,7.34.75,14.53,2.22,21.4Zm18.13-1.82h-16.65l-.03-.18c-1.23-6.25-1.85-12.77-1.85-19.4,0-22.08,6.96-42.46,18.15-53.2l.38-.36v73.14Zm-16.28-.44h15.84v-71.65c-10.89,10.75-17.64,30.8-17.64,52.51,0,6.53.61,12.97,1.8,19.13Z"/>
            <path class="cls-2" d="m32.06,121.55c-1.4,0-2.86-.05-4.35-.14-7.81-.48-16.03-2.27-15.88-4.66h0c.15-2.39,8.52-3.17,16.33-2.69,4.26.26,8.24.87,11.22,1.71,2.17.61,4.75,1.62,4.66,2.95s-2.76,2.02-4.99,2.36c-1.99.31-4.39.46-6.99.46Zm-19.79-4.77c-.1,1.56,6.1,3.62,15.46,4.19,4.23.26,8.22.14,11.25-.32,2.84-.44,4.57-1.17,4.61-1.95.05-.78-1.57-1.72-4.34-2.5-2.95-.83-6.9-1.43-11.12-1.69-9.36-.58-15.76.71-15.86,2.27h0Z"/>
          </g>
          <g>
            <path class="cls-2" d="m165.34,178.46h-18.48v-48.24l16.37,2.37c1.22.18,2.11,1.09,2.11,2.17v43.7Zm-18.03-.44h17.59v-43.26c0-.86-.73-1.58-1.72-1.73l-15.86-2.3v47.28Z"/>
            <path class="cls-2" d="m147.31,178.46h-18.48v-28.16h18.48v28.16Zm-18.03-.44h17.59v-27.27h-17.59v27.27Z"/>
            <path class="cls-2" d="m147.31,154.46h-14.18v-34.19c0-1.29,1.05-2.34,2.34-2.34h11.85v36.53Zm-13.74-.44h13.29v-35.64h-11.4c-1.04,0-1.89.85-1.89,1.89v33.75Z"/>
            <path class="cls-2" d="m161.04,139.5h-14.18v-43.08l12.2,2.32c1.15.22,1.98,1.12,1.98,2.15v38.61Zm-13.74-.44h13.29v-38.17c0-.81-.68-1.53-1.62-1.71l-11.67-2.22v42.1Z"/>
            <path class="cls-2" d="m147.31,139.5h-9.17v-42.08h9.17v42.08Zm-8.73-.44h8.29v-41.19h-8.29v41.19Z"/>
            <path class="cls-2" d="m147.31,118.68h-9.17v-39.74c0-1.29,1.05-2.34,2.34-2.34h6.84v42.08Zm-8.73-.44h8.29v-41.19h-6.39c-1.04,0-1.89.85-1.89,1.89v39.29Z"/>
            <path class="cls-2" d="m156.03,100.35h-9.17v-45.59l7.47,2.24c1.02.31,1.7,1.14,1.7,2.08v41.28Zm-8.73-.44h8.29v-40.83c0-.74-.56-1.41-1.38-1.65l-6.9-2.07v44.55Z"/>
            <path class="cls-2" d="m147.31,77.05h-4.38v-39.74c0-1.29,1.05-2.34,2.34-2.34h2.04v42.08Zm-3.94-.44h3.49v-41.19h-1.6c-1.04,0-1.89.85-1.89,1.89v39.29Z"/>
            <path class="cls-2" d="m151.24,57.89h-4.38V15.7l4.38,1.84v40.35Zm-3.94-.44h3.49V17.84l-3.49-1.47v41.07Z"/>
            <path class="cls-2" d="m147.31,35.57h-1.63V0h1.63v35.57Zm-1.18-.44h.74V.44h-.74v34.68Z"/>
            <path class="cls-2" d="m173.92,178.46h-53.68v-22.76h53.68v22.76Zm-53.24-.44h52.79v-21.87h-52.79v21.87Z"/>
          </g>
          <g>
            <path class="cls-2" d="m203.94,119.04c-1.93,0-3.5-1.57-3.5-3.51s1.57-3.51,3.5-3.51,3.51,1.57,3.51,3.51-1.57,3.51-3.51,3.51Zm0-6.57c-1.69,0-3.06,1.37-3.06,3.06s1.37,3.06,3.06,3.06,3.06-1.37,3.06-3.06-1.37-3.06-3.06-3.06Z"/>
            <path class="cls-2" d="m215.2,174.53h-22.52v-.22c0-36.23,4.65-73.47,11.05-88.53l.2-.47.21.46c6.51,14.42,11.06,50.82,11.06,88.53v.22Zm-22.07-.44h21.63c-.02-37.17-4.45-73.01-10.81-87.66-6.27,15.28-10.8,51.92-10.82,87.66Zm10.81-53.92c-2.56,0-4.64-2.08-4.64-4.63s2.08-4.64,4.64-4.64,4.64,2.08,4.64,4.64-2.08,4.63-4.64,4.63Zm0-8.83c-2.31,0-4.19,1.88-4.19,4.19s1.88,4.19,4.19,4.19,4.19-1.88,4.19-4.19-1.88-4.19-4.19-4.19Z"/>
          </g>
          <g>
            <path class="cls-2" d="m51.85,172.69h-3.91v-38.65l1.95-8.1,1.9,7.88h.06v38.87Zm-3.47-.44h3.02v-38.16s-1.52-6.25-1.52-6.25l-1.51,6.25v38.16Z"/>
            <path class="cls-2" d="m49.87,134.95c-.24,0-2.39-.02-2.39-.77s2.14-.77,2.39-.77,2.39.02,2.39.77-2.14.77-2.39.77Zm-1.92-.77c.17.13.86.32,1.92.32s1.76-.19,1.92-.32c-.17-.13-.86-.33-1.92-.33s-1.76.19-1.92.33Z"/>
            <path class="cls-2" d="m49.87,140.65c-.24,0-2.39-.02-2.39-.77s2.14-.77,2.39-.77,2.39.02,2.39.77-2.14.77-2.39.77Zm-1.92-.77c.17.13.86.33,1.92.33s1.76-.19,1.92-.33c-.17-.13-.86-.33-1.92-.33s-1.76.2-1.92.33Z"/>
          </g>
          <g>
            <path class="cls-2" d="m93.35,172.69h-3.91v-38.65l1.95-8.1,1.9,7.88h.06v38.87Zm-3.47-.44h3.02v-38.16s-1.52-6.25-1.52-6.25l-1.51,6.25v38.16Z"/>
            <path class="cls-2" d="m91.38,134.95c-.24,0-2.39-.02-2.39-.77s2.14-.77,2.39-.77,2.39.02,2.39.77-2.14.77-2.39.77Zm-1.92-.77c.17.13.86.32,1.92.32s1.76-.19,1.92-.32c-.17-.13-.86-.33-1.92-.33s-1.76.19-1.92.33Z"/>
            <path class="cls-2" d="m91.38,140.65c-.24,0-2.39-.02-2.39-.77s2.14-.77,2.39-.77,2.39.02,2.39.77-2.14.77-2.39.77Zm-1.92-.77c.17.13.86.33,1.92.33s1.76-.19,1.92-.33c-.17-.13-.86-.33-1.92-.33s-1.76.2-1.92.33Z"/>
          </g>
          <g>
            <path class="cls-2" d="m60.04,180.61h-3.91v-38.65l1.95-8.1,1.9,7.88h.06v38.87Zm-3.47-.44h3.02v-38.16s-1.52-6.25-1.52-6.25l-1.51,6.25v38.16Z"/>
            <path class="cls-2" d="m58.07,142.86c-.24,0-2.39-.02-2.39-.77s2.14-.77,2.39-.77,2.39.02,2.39.77-2.14.77-2.39.77Zm-1.92-.77c.17.13.86.32,1.92.32s1.76-.19,1.92-.32c-.17-.13-.86-.33-1.92-.33s-1.76.19-1.92.33Z"/>
            <path class="cls-2" d="m58.07,148.57c-.24,0-2.39-.02-2.39-.77s2.14-.77,2.39-.77,2.39.02,2.39.77-2.14.77-2.39.77Zm-1.92-.77c.17.13.86.33,1.92.33s1.76-.19,1.92-.33c-.17-.13-.86-.33-1.92-.33s-1.76.2-1.92.33Z"/>
          </g>
          <g>
            <path class="cls-2" d="m85.23,180.61h-3.91v-38.65l1.95-8.1,1.9,7.88h.06v38.87Zm-3.47-.44h3.02v-38.16s-1.52-6.25-1.52-6.25l-1.51,6.25v38.16Z"/>
            <path class="cls-2" d="m83.26,142.86c-.24,0-2.39-.02-2.39-.77s2.14-.77,2.39-.77,2.39.02,2.39.77-2.14.77-2.39.77Zm-1.92-.77c.17.13.86.32,1.92.32s1.76-.19,1.92-.32c-.17-.13-.86-.33-1.92-.33s-1.76.19-1.92.33Z"/>
            <path class="cls-2" d="m83.26,148.57c-.24,0-2.39-.02-2.39-.77s2.14-.77,2.39-.77,2.39.02,2.39.77-2.14.77-2.39.77Zm-1.92-.77c.17.13.86.33,1.92.33s1.76-.19,1.92-.33c-.17-.13-.86-.33-1.92-.33s-1.76.2-1.92.33Z"/>
          </g>
          <path class="cls-2" d="m257.65,174.53h-40.76v-26.48h40.76v26.48Zm-40.32-.44h39.87v-25.59h-39.87v25.59Z"/>
          <path class="cls-2" d="m212.04,174.53h-34.81v-26.48h34.81v26.48Zm-34.37-.44h33.92v-25.59h-33.92v25.59Z"/>
          <path class="cls-2" d="m235.04,152.33h-18.15v-26.48h18.15v26.48Zm-17.71-.44h17.26v-25.59h-17.26v25.59Z"/>
          <path class="cls-2" d="m320.19,172.52h-28.7v-57.71l.14-.06,28.56-11.43v69.19Zm-28.26-.44h27.81v-68.09l-27.81,11.13v56.96Z"/>
          <path class="cls-2" d="m338.19,172.52h-17.31v-26.58h17.31v26.58Zm-16.86-.44h16.42v-25.7h-16.42v25.7Z"/>
          <path class="cls-2" d="m114.99,172.52h-13.91v-31.32l3.2,1.5c6.51,3.05,10.71,9.67,10.71,16.86v12.96Zm-13.47-.44h13.03v-12.52c0-7.02-4.1-13.47-10.46-16.46l-2.57-1.21v30.18Z"/>
          <path class="cls-2" d="m257.65,155.68h-17.31v-16.17c0-8.98,5.25-17.24,13.38-21.05l3.93-1.84v39.07Zm-16.86-.44h16.42v-37.92l-3.3,1.55c-7.97,3.74-13.12,11.85-13.12,20.65v15.73Z"/>
          <path class="cls-2" d="m300.37,172.52h-46.7v-17.84h46.7v17.84Zm-46.25-.44h45.81v-16.95h-45.81v16.95Z"/>
          <path class="cls-2" d="m124.08,172.52h-41.04v-17.84h41.04v17.84Zm-40.6-.44h40.15v-16.95h-40.15v16.95Z"/>
          <path class="cls-2" d="m85.65,175.07h-46.7v-14.66h46.7v14.66Zm-46.25-.44h45.81v-13.77h-45.81v13.77Z"/>
          <path class="cls-2" d="m190.96,149.58h-13.75v-13.94l13.75,3.46v10.48Zm-13.31-.44h12.86v-9.69l-12.86-3.23v12.92Z"/>
          <path class="cls-2" d="m70.46,172.69c-8.15,0-14.78-4.04-14.78-9.01s6.63-9,14.78-9,14.78,4.04,14.78,9-6.63,9.01-14.78,9.01Zm0-17.56c-7.9,0-14.33,3.84-14.33,8.56s6.43,8.56,14.33,8.56,14.33-3.84,14.33-8.56-6.43-8.56-14.33-8.56Z"/>
          <g>
            <path class="cls-2" d="m236.38,142.35h-17.59v-1.85h17.59v1.85Zm-17.14-.44h16.7v-.96h-16.7v.96Z"/>
            <path class="cls-2" d="m236.38,144.78h-17.59v-1.85h17.59v1.85Zm-17.14-.44h16.7v-.96h-16.7v.96Z"/>
            <path class="cls-2" d="m236.38,147.21h-17.59v-1.85h17.59v1.85Zm-17.14-.44h16.7v-.96h-16.7v.96Z"/>
            <path class="cls-2" d="m236.38,134.98h-17.59v-1.85h17.59v1.85Zm-17.14-.44h16.7v-.96h-16.7v.96Z"/>
            <path class="cls-2" d="m236.38,137.42h-17.59v-1.85h17.59v1.85Zm-17.14-.44h16.7v-.96h-16.7v.96Z"/>
            <path class="cls-2" d="m236.38,139.85h-17.59v-1.85h17.59v1.85Zm-17.14-.44h16.7v-.96h-16.7v.96Z"/>
            <path class="cls-2" d="m236.38,127.71h-17.59v-1.85h17.59v1.85Zm-17.14-.44h16.7v-.96h-16.7v.96Z"/>
            <path class="cls-2" d="m236.38,130.14h-17.59v-1.85h17.59v1.85Zm-17.14-.44h16.7v-.96h-16.7v.96Z"/>
            <path class="cls-2" d="m236.38,132.58h-17.59v-1.85h17.59v1.85Zm-17.14-.44h16.7v-.96h-16.7v.96Z"/>
          </g>
          <g>
            <path class="cls-2" d="m321.7,118.23h-29.46v-2.92h29.46v2.92Zm-29.01-.44h28.57v-2.03h-28.57v2.03Z"/>
            <path class="cls-2" d="m321.7,122.47h-29.46v-2.93h29.46v2.93Zm-29.01-.44h28.57v-2.04h-28.57v2.04Z"/>
            <path class="cls-2" d="m321.7,126.7h-29.46v-2.93h29.46v2.93Zm-29.01-.44h28.57v-2.04h-28.57v2.04Z"/>
            <path class="cls-2" d="m321.7,130.93h-29.46v-2.92h29.46v2.92Zm-29.01-.44h28.57v-2.03h-28.57v2.03Z"/>
            <path class="cls-2" d="m321.7,135.16h-29.46v-2.93h29.46v2.93Zm-29.01-.44h28.57v-2.04h-28.57v2.04Z"/>
            <path class="cls-2" d="m321.7,139.4h-29.46v-2.93h29.46v2.93Zm-29.01-.44h28.57v-2.04h-28.57v2.04Z"/>
          </g>
          <path class="cls-2" d="m186.01,140.44h-1.5l.53-23.49h.44l.53,23.49Zm-1.05-.44h.59l-.3-13.16-.3,13.16Z"/>
          <path class="cls-2" d="m230.62,127.39h-1.5l.53-23.49h.44l.53,23.49Zm-1.05-.44h.59l-.3-13.16-.3,13.16Z"/>
          <path class="cls-2" d="m314.5,107.82h-1.5l.53-23.49h.44l.53,23.49Zm-1.05-.44h.59l-.3-13.16-.3,13.16Z"/>
          <path class="cls-2" d="m71.22,156.32h-1.52l.54-7.77h.44l.54,7.77Zm-1.05-.44h.57l-.29-4.11-.29,4.11Z"/>
          <path class="cls-2" d="m104.83,169.39h-1.5v-.23s.53-38.12.53-38.12h.44l.53,38.34Zm-1.05-.44h.6l-.3-21.71-.3,21.71Z"/>
          <path class="cls-2" d="m227.83,127.39h-1.5l.53-23.49h.44l.53,23.49Zm-1.05-.44h.59l-.3-13.16-.3,13.16Z"/>
          <g>
            <path class="cls-2" d="m287.11,177.26h-27.28l1.79-67.22,3.57-28.45-2.91,20.31-.44-.04.15-5.55-2.15-43.34,9.48-2.2h.04s17.76,2.17,17.76,2.17l-1.52,51.69-2.57,31.38,1.7-16.92.44.03-.2,6.82,2.16,51.3Zm-26.82-.44h26.36l-2.14-50.85.02-.54-3.49,34.76-.44-.04,4.54-55.52,1.51-51.28-17.31-2.12-9.04,2.09,2.14,42.99-.05,1.73,5.98-41.75.44.06-6.74,53.72-1.77,66.74Z"/>
            <path class="cls-2" d="m270.27,54.85h-1.52l.54-9.82h.44l.54,9.82Zm-1.05-.44h.58l-.29-5.29-.29,5.29Z"/>
            <path class="cls-2" d="m277.75,58.3h-1.52l.54-9.82h.44l.54,9.82Zm-1.05-.44h.58l-.29-5.29-.29,5.29Z"/>
            <path class="cls-2" d="m286,56.48h-1.52l.54-9.82h.44l.54,9.82Zm-1.05-.44h.58l-.29-5.29-.29,5.29Z"/>
            <path class="cls-2" d="m261.92,55.37h-1.52l.54-9.82h.44l.54,9.82Zm-1.05-.44h.58l-.29-5.29-.29,5.29Z"/>
          </g>
        </g>
      </g>
    </g>
  </g>
</svg>